<svg width="56" height="40" viewBox="0 0 56 40" fill="none" xmlns="http://www.w3.org/2000/svg">
<rect width="56" height="40" rx="16" fill="#EBEBEB"/>
<path d="M28 20C30.7614 20 33 17.7614 33 15C33 12.2386 30.7614 10 28 10C25.2386 10 23 12.2386 23 15C23 17.7614 25.2386 20 28 20Z" stroke="black" stroke-width="2"/>
<path d="M33.0001 22H33.3521C34.0831 22.0002 34.789 22.2674 35.337 22.7513C35.885 23.2352 36.2374 23.9026 36.3281 24.628L36.7191 27.752C36.7542 28.0334 36.7291 28.3191 36.6455 28.5901C36.5618 28.8611 36.4214 29.1112 36.2337 29.3238C36.046 29.5364 35.8152 29.7066 35.5566 29.8232C35.2981 29.9398 35.0177 30.0001 34.7341 30H21.2661C20.9824 30.0001 20.7021 29.9398 20.4435 29.8232C20.185 29.7066 19.9542 29.5364 19.7664 29.3238C19.5787 29.1112 19.4383 28.8611 19.3547 28.5901C19.271 28.3191 19.2459 28.0334 19.2811 27.752L19.6711 24.628C19.7618 23.9022 20.1145 23.2346 20.6629 22.7506C21.2113 22.2667 21.9176 21.9997 22.6491 22H23.0001" stroke="black" stroke-width="2" stroke-linecap="round" stroke-linejoin="round"/>
</svg>