<svg width="20" height="20" viewBox="0 0 20 20" fill="none" xmlns="http://www.w3.org/2000/svg">
<path d="M-0.0039978 4.49597C-0.0039978 3.3025 0.470108 2.1579 1.31402 1.31399C2.15794 0.470077 3.30253 -0.00402832 4.496 -0.00402832H9.504C10.6672 -0.00386424 11.7852 0.446743 12.6235 1.25328C13.4617 2.05981 13.955 3.1596 14 4.32197V9.67597C13.9653 10.5771 13.6608 11.447 13.1259 12.1731C12.591 12.8991 11.8504 13.4478 11 13.748L11.004 4.49597C11.004 4.09815 10.846 3.71662 10.5647 3.43531C10.2834 3.15401 9.90183 2.99597 9.504 2.99597H4.496C4.09818 2.99597 3.71665 3.15401 3.43534 3.43531C3.15404 3.71662 2.996 4.09815 2.996 4.49597V9.50397C2.996 10.158 3.416 10.714 4 10.92V13.976C2.89926 13.8539 1.88219 13.3302 1.14344 12.5051C0.404686 11.68 -0.00385472 10.6115 -0.0039978 9.50397V4.49597ZM6 15.5C6 16.6934 6.47411 17.838 7.31802 18.682C8.16194 19.5259 9.30653 20 10.5 20H15.5C16.6935 20 17.8381 19.5259 18.682 18.682C19.5259 17.838 20 16.6934 20 15.5V10.5C20 9.3931 19.592 8.32506 18.8541 7.50006C18.1161 6.67505 17.1 6.15096 16 6.02797V9.08597C16.582 9.29197 17 9.84597 17 10.5V15.5C17 15.8978 16.842 16.2793 16.5607 16.5606C16.2794 16.8419 15.8978 17 15.5 17H10.5C10.1022 17 9.72065 16.8419 9.43934 16.5606C9.15804 16.2793 9 15.8978 9 15.5V6.25597C8.12243 6.56624 7.36266 7.14101 6.82537 7.90109C6.28809 8.66117 5.99972 9.56916 6 10.5V15.5Z" fill="black"/>
</svg>