<svg width="80" height="80" viewBox="0 0 80 80" fill="none" xmlns="http://www.w3.org/2000/svg">
<path fill-rule="evenodd" clip-rule="evenodd" d="M28.7519 72.0564C22.2588 70.2466 15.4609 69.3336 8.8664 68.4972C7.44606 68.3219 6.12736 69.3003 6.02591 70.6789C5.823 72.0585 6.83813 73.3201 8.15702 73.4955C14.5486 74.3006 21.1425 75.1622 27.3311 76.9045C28.65 77.2824 30.071 76.5045 30.4768 75.1663C30.8826 73.829 30.0708 72.4353 28.7519 72.0564Z" fill="#F5FA93"/>
<path fill-rule="evenodd" clip-rule="evenodd" d="M48.433 46.397C37.9833 35.8049 26.2147 26.5762 15.9679 15.7C15.0548 14.6842 13.4316 14.6298 12.417 15.578C11.4025 16.5273 11.3015 18.1235 12.316 19.1393C22.5628 30.0468 34.3314 39.3057 44.7811 49.929C45.7956 50.9206 47.4185 50.9347 48.433 49.9592C49.3461 48.9848 49.4475 47.3886 48.433 46.397Z" fill="#F5FA93"/>
<path fill-rule="evenodd" clip-rule="evenodd" d="M68.0148 5.6561C68.3192 11.7185 68.623 17.7809 68.9273 23.8443C68.9273 25.233 70.1454 26.3052 71.5657 26.2377C72.9861 26.1691 74 24.9871 74 23.5975C73.6956 17.525 73.3919 11.4535 73.0875 5.38199C72.9861 3.99336 71.7684 2.92821 70.3481 3.00379C69.0292 3.07936 67.9134 4.26847 68.0148 5.6561Z" fill="#F5FA93"/>
</svg>
