<svg width="114" height="64" viewBox="0 0 114 64" fill="none" xmlns="http://www.w3.org/2000/svg">
<path fill-rule="evenodd" clip-rule="evenodd" d="M104.014 25.358C103.993 24.9158 103.997 24.4853 104.018 24.0812C104.09 22.8659 105.226 22.87 105.314 22.8717C105.5 22.8759 106.324 22.9278 106.522 23.8753C106.535 23.9318 106.564 24.341 106.573 24.4987C106.589 24.835 106.598 25.1656 106.552 25.4973C106.594 26.06 106.686 26.639 106.863 27.1837C107.12 27.9878 107.536 28.7299 108.289 29.1253C109.636 29.8365 111.407 29.8076 112.888 29.9883C113.507 30.0636 113.978 30.5765 113.999 31.1957C114.016 31.8153 113.579 32.3558 112.964 32.4683C111.113 32.8089 108.984 34.4827 107.629 35.8306C107.212 36.2448 106.745 37.2313 106.223 37.863C105.803 38.3692 105.335 38.7085 104.894 38.8432C104.721 38.8955 103.766 39.0863 103.337 38.1031C103.219 37.827 102.802 36.3812 102.764 36.2164C102.537 35.2717 102.213 34.4279 101.578 33.6765C101.027 33.0251 100.358 32.4562 99.5539 32.1408C99.2299 32.0136 98.8932 31.9169 98.5566 31.8174C98.4388 31.8031 98.1064 31.7613 97.9886 31.7216C97.7487 31.6421 97.572 31.5174 97.4457 31.3932C97.2059 31.1581 97.0838 30.8773 97.0628 30.5577C97.046 30.3469 97.0754 30.0967 97.2269 29.8193C97.3405 29.6223 97.5972 29.3257 98.0601 29.1332C98.544 28.932 99.5833 28.7408 99.7685 28.691C101.056 28.3463 102.318 27.8221 103.307 26.9134C103.8 26.4591 103.913 25.9692 104.014 25.358ZM104.839 28.9157C105.335 29.939 106.076 30.8004 107.107 31.343C107.532 31.5685 107.995 31.7396 108.474 31.8726C107.486 32.557 106.568 33.3352 105.84 34.0564C105.605 34.2911 105.348 34.671 105.075 35.0881C104.755 33.9744 104.283 32.9741 103.509 32.0588C103.051 31.5191 102.533 31.0258 101.957 30.6146C103 30.2038 103.989 29.6541 104.839 28.9157Z" fill="white"/>
<path fill-rule="evenodd" clip-rule="evenodd" d="M77.7115 60.9059C87.2885 61.136 97.076 60.6716 106.232 63.9264C106.889 64.1607 107.612 63.8176 107.848 63.1692C108.084 62.5166 107.739 61.797 107.082 61.5627C97.6693 58.2159 87.6167 58.63 77.7746 58.3958C77.0761 58.379 76.4996 58.9271 76.4828 59.6174C76.466 60.3118 77.0172 60.885 77.7115 60.9059Z" fill="white"/>
<path fill-rule="evenodd" clip-rule="evenodd" d="M77.0004 46.996C79.967 44.283 83.2028 42.2485 87.116 41.2411C87.7893 41.0675 88.1933 40.3822 88.0207 39.7116C87.844 39.041 87.1582 38.6377 86.4807 38.8113C82.155 39.9245 78.5699 42.1502 75.292 45.1481C74.7787 45.6171 74.745 46.4115 75.2163 46.9215C75.6876 47.4315 76.4871 47.465 77.0004 46.996Z" fill="white"/>
<path fill-rule="evenodd" clip-rule="evenodd" d="M68.7357 17.0203C70.0948 12.3954 72.7668 8.77704 76.861 6.16442C77.4459 5.79041 77.6184 5.0131 77.2397 4.43034C76.8652 3.84715 76.0825 3.67772 75.4976 4.05215C70.869 7.00447 67.8478 11.0905 66.3119 16.317C66.1184 16.9818 66.5013 17.6792 67.1703 17.8733C67.8394 18.0674 68.5421 17.685 68.7357 17.0203Z" fill="white"/>
<path fill-rule="evenodd" clip-rule="evenodd" d="M21.0105 10.5887C20.2194 11.5233 19.5125 12.5273 18.9066 13.5942C18.5531 14.2095 17.9304 15.6428 18.0356 16.6808C18.1156 17.4585 18.4858 18.091 19.2264 18.4642C20.4088 19.0616 21.3556 18.9884 22.0835 18.6274C22.782 18.2818 23.3374 17.6082 23.6825 16.6983C24.2968 15.0739 24.2253 12.6181 23.9139 11.1388C24.7555 10.2858 25.677 9.51018 26.6575 8.81822C34.1979 3.50387 45.2603 5.48937 53.7728 13.4356C56.7561 16.2193 58.1742 22.0717 58.919 28.3792C60.093 38.2766 59.4239 49.3307 59.3314 52.5692C59.3103 53.4214 59.4029 53.9268 59.445 54.0276C59.6806 54.5844 60.1014 54.7309 60.3917 54.7852C60.7999 54.8605 61.1239 54.7811 61.389 54.643C61.7425 54.4589 62.037 54.136 62.1717 53.6331C62.239 53.3762 62.26 53.0194 62.2516 52.6383C62.2432 52.4128 62.1885 52.1668 62.2348 52.0053C62.563 50.8703 62.9585 49.7612 63.3414 48.6451C64.629 44.8903 66.2995 41.372 68.1468 37.8574C74.0335 26.6832 79.7141 14.8726 89.3627 6.35914C89.8845 5.89937 89.935 5.10576 89.4721 4.58742C89.0093 4.0695 88.2098 4.02222 87.688 4.48199C77.808 13.198 71.9339 25.2528 65.9124 36.6935C64.5112 39.3518 63.2152 42.0137 62.1001 44.7719C62.2011 38.5448 62.0496 30.1061 60.6568 23.1414C59.668 18.1747 58.0143 13.9477 55.5022 11.6057C46.0051 2.74081 33.6088 0.841463 25.1974 6.77037C24.3684 7.35356 23.5816 7.99031 22.8368 8.67725C18.368 0.918459 9.014 -2.15979 0.737174 1.59577C0.105997 1.8836 -0.17592 2.62868 0.114421 3.25872C0.404762 3.88876 1.15375 4.16695 1.78492 3.87912C9.08132 0.56911 17.3455 3.48881 21.0105 10.5887ZM21.6585 13.9221C21.465 14.2188 21.2799 14.5216 21.1031 14.8308C20.9769 15.0475 20.7875 15.4249 20.6571 15.8281C20.615 15.9683 20.5814 16.1888 20.5645 16.3235C20.7202 16.3971 20.8464 16.4356 20.96 16.38C21.1452 16.2875 21.2251 16.057 21.3177 15.8131C21.5239 15.2696 21.6291 14.5932 21.6585 13.9221Z" fill="white"/>
</svg>