<svg width="218" height="26" viewBox="0 0 218 26" fill="none" xmlns="http://www.w3.org/2000/svg">
<path fill-rule="evenodd" clip-rule="evenodd" d="M119.251 14.3882C94.0534 13.7082 68.8561 12.0267 43.7646 9.28874C30.0599 7.79364 14.143 7.97274 0.847533 2.87695C-0.199853 2.47485 0.00905886 1.25024 0.0319525 1.12961C0.0777399 0.877375 0.269477 0.0403194 1.10796 0.000108719C1.17378 -0.00354767 1.62308 0.0694809 1.79764 0.0987244C5.71246 0.756718 9.61583 1.52441 13.5335 2.14585C27.0665 4.29895 40.6339 5.92199 54.2241 7.34764C72.2644 9.2412 90.4563 10.2538 108.545 11.0397C118.45 11.4748 128.589 10.9009 138.527 11.7891C142.167 11.8147 145.813 11.8183 149.459 11.8037C164.703 11.7342 179.93 10.9958 195.155 9.98325C200.048 9.65791 203.786 9.30698 208.582 9.06938C210.405 8.97799 213.298 8.91583 215.307 8.87562C215.599 8.86831 216.331 8.86107 216.649 8.85742C216.692 8.85011 216.735 8.8501 216.778 8.8501C216.932 8.85375 217.01 8.86474 217.024 8.86839C218.114 9.0731 218.014 10.3818 217.983 10.5865C217.977 10.6303 217.817 11.738 216.884 11.7782C216.743 11.7855 215.733 11.7927 215.344 11.8C213.35 11.8402 210.479 11.9024 208.671 11.9901C203.886 12.2277 200.157 12.5787 195.272 12.904C180.014 13.9166 164.749 14.6587 149.468 14.7281C147.682 14.7354 145.899 14.7391 144.119 14.7354C143.987 14.9548 143.784 15.1559 143.461 15.2619C143.166 15.3606 141.048 15.4555 140.23 15.5433C134.318 16.1611 134.492 16.1355 127.985 16.6436C118.129 17.4149 116.629 17.5905 106.382 17.9158C93.8388 18.3142 81.2931 18.4239 68.7473 18.4348C86.7647 19.5461 104.902 19.3963 122.894 19.7326C131.03 19.8825 139.163 20.1529 147.298 20.0725C150.091 20.0433 152.882 19.9116 155.675 19.8678C156.253 19.8568 157.738 19.7289 157.953 19.791C158.662 19.9921 158.814 20.6684 158.857 20.9974C158.88 21.1875 158.983 22.3133 157.927 22.7081C153.214 24.4628 144.517 24.3933 139.938 24.7406C114.297 26.678 88.6047 26.137 62.9524 24.7516C52.3612 24.1813 41.8043 23.3661 31.2561 22.0501C27.5673 21.5932 23.87 21.202 20.1955 20.5879C19.6003 20.4892 18.2582 20.3467 17.6086 20.1968C17.2738 20.1164 17.0362 19.9994 16.9246 19.9227C16.4038 19.5462 16.3151 18.9905 16.3122 18.6176C16.3094 18.3471 16.3637 17.3345 17.4168 17.075C28.1282 14.3955 39.7811 15.4409 50.5497 15.4775C69.1423 15.536 87.7377 15.5836 106.324 14.9914C112.612 14.7903 115.594 14.6477 119.251 14.3882ZM124.605 22.6898C104.092 23.505 83.5567 22.9385 63.0468 21.8308C52.4986 21.2606 41.9846 20.449 31.4793 19.1403C29.8052 18.932 28.1339 18.7383 26.4627 18.5299C34.4841 17.7951 42.7516 18.3727 50.544 18.4019L55.8925 18.4166C55.8496 18.5555 55.821 18.7053 55.8124 18.8589C55.7638 19.6631 56.2359 20.3686 56.8655 20.4307C78.7633 22.5546 100.919 22.2476 122.862 22.657C123.443 22.668 124.024 22.6789 124.605 22.6898Z" fill="white"/>
</svg>